<svg width="256" height="54" viewBox="0 0 256 54" fill="none" xmlns="http://www.w3.org/2000/svg">
<path d="M24.135 42C22.6683 42 21.44 41.5417 20.45 40.625C19.4967 39.7083 18.8917 38.48 18.635 36.94H18.305C17.865 38.81 16.8933 40.24 15.39 41.23C13.8867 42.1833 12.035 42.66 9.835 42.66C6.93833 42.66 4.72 41.89 3.18 40.35C1.64 38.81 0.87 36.775 0.87 34.245C0.87 31.2017 1.97 28.9467 4.17 27.48C6.40667 25.9767 9.43167 25.225 13.245 25.225H17.81V23.41C17.81 22.0167 17.4433 20.9167 16.71 20.11C15.9767 19.2667 14.7483 18.845 13.025 18.845C11.4117 18.845 10.1283 19.1933 9.175 19.89C8.22167 20.5867 7.43333 21.375 6.81 22.255L1.97 17.965C3.14333 16.2417 4.61 14.9033 6.37 13.95C8.16667 12.96 10.5867 12.465 13.63 12.465C17.7367 12.465 20.8167 13.3633 22.87 15.16C24.9233 16.9567 25.95 19.5783 25.95 23.025V35.675H28.645V42H24.135ZM12.86 36.995C14.2167 36.995 15.3717 36.7017 16.325 36.115C17.315 35.5283 17.81 34.575 17.81 33.255V29.845H13.85C10.66 29.845 9.065 30.9267 9.065 33.09V33.915C9.065 34.9783 9.395 35.7667 10.055 36.28C10.715 36.7567 11.65 36.995 12.86 36.995ZM60.8385 44.09C60.8385 45.63 60.5635 46.9867 60.0135 48.16C59.5001 49.3333 58.6385 50.3233 57.4285 51.13C56.2185 51.9733 54.6051 52.5967 52.5885 53C50.6085 53.44 48.1518 53.66 45.2185 53.66C42.7251 53.66 40.5985 53.495 38.8385 53.165C37.1151 52.8717 35.7035 52.4317 34.6035 51.845C33.5401 51.295 32.7518 50.5983 32.2385 49.755C31.7618 48.9483 31.5235 48.0133 31.5235 46.95C31.5235 45.3367 32.0001 44.0717 32.9535 43.155C33.9068 42.2383 35.2268 41.67 36.9135 41.45V40.845C35.5201 40.5883 34.4751 40.0017 33.7785 39.085C33.0818 38.1317 32.7335 37.0317 32.7335 35.785C32.7335 35.015 32.8801 34.355 33.1735 33.805C33.5035 33.2183 33.9068 32.7233 34.3835 32.32C34.8968 31.88 35.4835 31.5317 36.1435 31.275C36.8035 31.0183 37.4635 30.8167 38.1235 30.67V30.45C36.3635 29.6433 35.0618 28.5433 34.2185 27.15C33.3751 25.72 32.9535 24.07 32.9535 22.2C32.9535 19.2667 33.9618 16.92 35.9785 15.16C38.0318 13.3633 41.1485 12.465 45.3285 12.465C47.2351 12.465 48.8668 12.6483 50.2235 13.015V11.915C50.2235 10.375 50.5901 9.275 51.3235 8.615C52.0935 7.91833 53.1751 7.57 54.5685 7.57H59.1335V13.62H52.7535V13.95C54.4401 14.7567 55.6868 15.875 56.4935 17.305C57.3001 18.6983 57.7035 20.33 57.7035 22.2C57.7035 25.0967 56.6768 27.425 54.6235 29.185C52.6068 30.9083 49.5085 31.77 45.3285 31.77C43.4585 31.77 41.7535 31.5683 40.2135 31.165C39.3701 31.715 38.9485 32.485 38.9485 33.475C38.9485 34.1717 39.2051 34.7217 39.7185 35.125C40.2685 35.4917 41.1668 35.675 42.4135 35.675H50.7735C54.2935 35.675 56.8418 36.4083 58.4185 37.875C60.0318 39.3417 60.8385 41.4133 60.8385 44.09ZM53.1935 45.19C53.1935 44.3467 52.8635 43.705 52.2035 43.265C51.5435 42.825 50.3885 42.605 48.7385 42.605H38.8385C38.4718 42.9717 38.1968 43.375 38.0135 43.815C37.8668 44.2917 37.7935 44.75 37.7935 45.19C37.7935 46.2533 38.2518 47.0233 39.1685 47.5C40.0851 48.0133 41.6435 48.27 43.8435 48.27H47.1435C49.3435 48.27 50.9018 48.0133 51.8185 47.5C52.7351 47.0233 53.1935 46.2533 53.1935 45.19ZM45.3285 26.435C46.9418 26.435 48.1335 26.105 48.9035 25.445C49.7101 24.7483 50.1135 23.7583 50.1135 22.475V21.815C50.1135 20.5317 49.7101 19.56 48.9035 18.9C48.1335 18.2033 46.9418 17.855 45.3285 17.855C43.7151 17.855 42.5051 18.2033 41.6985 18.9C40.9285 19.56 40.5435 20.5317 40.5435 21.815V22.475C40.5435 23.7583 40.9285 24.7483 41.6985 25.445C42.5051 26.105 43.7151 26.435 45.3285 26.435ZM64.4552 42V13.125H72.5952V18.02H72.9252C73.4385 16.5167 74.3368 15.215 75.6202 14.115C76.9035 13.015 78.6818 12.465 80.9552 12.465C83.9252 12.465 86.1618 13.455 87.6652 15.435C89.2052 17.415 89.9752 20.2383 89.9752 23.905V42H81.8352V24.565C81.8352 22.695 81.5418 21.32 80.9552 20.44C80.3685 19.5233 79.3235 19.065 77.8202 19.065C77.1602 19.065 76.5185 19.1567 75.8952 19.34C75.2718 19.4867 74.7035 19.7433 74.1902 20.11C73.7135 20.4767 73.3285 20.935 73.0352 21.485C72.7418 21.9983 72.5952 22.6033 72.5952 23.3V42H64.4552ZM101.289 10.045C99.6388 10.045 98.4288 9.67833 97.6588 8.945C96.9255 8.175 96.5588 7.20333 96.5588 6.03V4.82C96.5588 3.64667 96.9255 2.69333 97.6588 1.96C98.4288 1.19 99.6388 0.804999 101.289 0.804999C102.939 0.804999 104.13 1.19 104.864 1.96C105.634 2.69333 106.019 3.64667 106.019 4.82V6.03C106.019 7.20333 105.634 8.175 104.864 8.945C104.13 9.67833 102.939 10.045 101.289 10.045ZM97.2188 13.125H105.359V42H97.2188V13.125ZM114.386 19.45H110.316V13.125H114.386V9.715C114.386 6.92833 115.119 4.83833 116.586 3.445C118.053 2.015 120.198 1.3 123.021 1.3H128.301V7.625H122.526V13.125H140.951V42H132.811V19.45H122.526V42H114.386V19.45ZM136.881 10.045C135.231 10.045 134.021 9.67833 133.251 8.945C132.518 8.175 132.151 7.20333 132.151 6.03V4.82C132.151 3.64667 132.518 2.69333 133.251 1.96C134.021 1.19 135.231 0.804999 136.881 0.804999C138.531 0.804999 139.723 1.19 140.456 1.96C141.226 2.69333 141.611 3.64667 141.611 4.82V6.03C141.611 7.20333 141.226 8.175 140.456 8.945C139.723 9.67833 138.531 10.045 136.881 10.045ZM160.226 42.66C158.063 42.66 156.138 42.3117 154.451 41.615C152.765 40.8817 151.353 39.8733 150.216 38.59C149.08 37.27 148.218 35.675 147.631 33.805C147.045 31.935 146.751 29.845 146.751 27.535C146.751 25.225 147.045 23.1533 147.631 21.32C148.218 19.45 149.08 17.855 150.216 16.535C151.353 15.215 152.765 14.2067 154.451 13.51C156.138 12.8133 158.063 12.465 160.226 12.465C163.16 12.465 165.598 13.125 167.541 14.445C169.521 15.765 170.933 17.6167 171.776 20L165.176 22.86C164.92 21.76 164.388 20.825 163.581 20.055C162.775 19.285 161.656 18.9 160.226 18.9C158.576 18.9 157.33 19.45 156.486 20.55C155.643 21.6133 155.221 23.0617 155.221 24.895V30.285C155.221 32.1183 155.643 33.5667 156.486 34.63C157.33 35.6933 158.576 36.225 160.226 36.225C161.693 36.225 162.848 35.84 163.691 35.07C164.571 34.2633 165.213 33.2183 165.616 31.935L171.941 34.685C170.988 37.435 169.503 39.4517 167.486 40.735C165.506 42.0183 163.086 42.66 160.226 42.66ZM188.756 42.66C186.556 42.66 184.594 42.3117 182.871 41.615C181.148 40.8817 179.681 39.8733 178.471 38.59C177.298 37.27 176.399 35.675 175.776 33.805C175.189 31.935 174.896 29.845 174.896 27.535C174.896 25.2617 175.189 23.2083 175.776 21.375C176.363 19.505 177.224 17.91 178.361 16.59C179.534 15.27 180.964 14.2617 182.651 13.565C184.338 12.8317 186.263 12.465 188.426 12.465C190.809 12.465 192.844 12.8683 194.531 13.675C196.254 14.4817 197.648 15.5633 198.711 16.92C199.811 18.2767 200.599 19.8533 201.076 21.65C201.589 23.41 201.846 25.2617 201.846 27.205V29.625H183.311V30.065C183.311 31.9717 183.824 33.4933 184.851 34.63C185.878 35.73 187.491 36.28 189.691 36.28C191.378 36.28 192.753 35.95 193.816 35.29C194.879 34.5933 195.869 33.7683 196.786 32.815L200.856 37.875C199.573 39.3783 197.886 40.5517 195.796 41.395C193.743 42.2383 191.396 42.66 188.756 42.66ZM188.591 18.46C186.941 18.46 185.639 19.01 184.686 20.11C183.769 21.1733 183.311 22.6033 183.311 24.4V24.84H193.431V24.345C193.431 22.585 193.028 21.1733 192.221 20.11C191.451 19.01 190.241 18.46 188.591 18.46ZM207.595 42V13.125H215.735V18.02H216.065C216.578 16.5167 217.476 15.215 218.76 14.115C220.043 13.015 221.821 12.465 224.095 12.465C227.065 12.465 229.301 13.455 230.805 15.435C232.345 17.415 233.115 20.2383 233.115 23.905V42H224.975V24.565C224.975 22.695 224.681 21.32 224.095 20.44C223.508 19.5233 222.463 19.065 220.96 19.065C220.3 19.065 219.658 19.1567 219.035 19.34C218.411 19.4867 217.843 19.7433 217.33 20.11C216.853 20.4767 216.468 20.935 216.175 21.485C215.881 21.9983 215.735 22.6033 215.735 23.3V42H207.595ZM250.478 42C247.655 42 245.51 41.285 244.043 39.855C242.613 38.425 241.898 36.335 241.898 33.585V19.45H237.828V13.125H239.863C240.963 13.125 241.715 12.8683 242.118 12.355C242.522 11.805 242.723 11.035 242.723 10.045V5.315H250.038V13.125H255.758V19.45H250.038V35.675H255.318V42H250.478Z" fill="#2255A4"/>
</svg>
