<svg width="111" height="61" viewBox="0 0 111 61" fill="none" xmlns="http://www.w3.org/2000/svg">
<path d="M60.7274 11.3475C62.974 8.15105 68 9.74059 68 13.6475V22.9967L45.5146 55.0012L45.5043 55.0115L42 60V37.993L60.7274 11.3475Z" fill="url(#paint0_linear_107_460)"/>
<path d="M102.426 11.0029C104.672 7.80428 109.7 9.39303 109.7 13.3011V56.0611C109.7 58.2702 107.909 60.0611 105.7 60.0611H88.4004C86.1912 60.0611 84.4004 58.2702 84.4004 56.0611V37.9449C84.4004 37.1224 84.6539 36.3199 85.1265 35.6467L102.426 11.0029Z" fill="url(#paint1_linear_107_460)"/>
<path d="M68.68 0.000976562L65.39 2.88097V2.88097C65.3833 2.88763 65.376 2.89359 65.3684 2.89911C65.3411 2.91892 65.316 2.94163 65.2936 2.96686C65.2913 2.96946 65.288 2.97098 65.2845 2.97098V2.97098C65.2816 2.97098 65.2788 2.97203 65.2766 2.97395L2.07325 58.3581C2.07114 58.36 2.06844 58.361 2.06564 58.361V58.361C2.06265 58.361 2.05977 58.3621 2.05762 58.3642C2.03499 58.3861 2.01835 58.4024 2.00769 58.4079C2.00422 58.4097 2.00098 58.4131 2.00098 58.4171V58.4171C2.00098 58.4195 1.99973 58.4218 1.99768 58.4231C1.98475 58.4314 1.97248 58.4407 1.96098 58.451V58.451C1.68382 58.6942 1.28852 58.3393 1.50058 58.0376L5.00337 53.0545C5.02841 53.0189 5.05075 52.9813 5.07606 52.9459V52.9459C5.10126 52.9106 5.12349 52.8732 5.1484 52.8377L41.0464 1.70268C41.7952 0.63596 43.0168 0.000976562 44.3202 0.000976562H68.68Z" fill="url(#paint2_linear_107_460)"/>
<path d="M68.68 0.000976562L67.99 0.970978L42.69 37.011L26.44 60.171H0L2.06 58.361H2.07L65.28 2.97098L67.99 0.600968L68.68 0.000976562Z" fill="url(#paint3_linear_107_460)"/>
<path d="M109.551 0.000976562C109.762 0.000976562 109.86 0.262621 109.701 0.400971V0.400971L105.621 3.98198L105.619 3.98369C105.614 3.98921 105.608 3.99428 105.601 3.99885V3.99885C105.581 4.01336 105.565 4.03292 105.546 4.04796C105.544 4.04913 105.543 4.05043 105.541 4.05197C105.534 4.05907 105.532 4.06113 105.528 4.06172C105.524 4.06224 105.521 4.06495 105.521 4.06864V4.06864C105.521 4.07074 105.52 4.07272 105.518 4.07398L105.441 4.13198C105.406 4.15522 105.372 4.18203 105.341 4.21198L84.4014 22.562L67.9914 36.942L44.8514 57.202L44.7714 57.282C44.7438 57.3112 44.7137 57.338 44.6814 57.362L42.6914 59.102V59.102C42.523 59.2509 42.2814 59.0348 42.4108 58.8509L42.6914 58.452L46.0973 53.5978C46.1 53.5939 46.1031 53.5903 46.1064 53.587V53.587C46.1097 53.5837 46.1127 53.58 46.1154 53.5762L67.9914 22.401L82.228 2.12754C83.1642 0.794468 84.691 0.000976562 86.3199 0.000976562H109.551Z" fill="url(#paint4_linear_107_460)"/>
<path d="M110.161 0.000976562L109.701 0.640976L84.4015 36.681L67.9915 60.061L67.9215 60.171H41.4805L42.6905 59.101L44.8505 57.201L67.9905 36.941L84.4005 22.561L105.34 4.21097L105.44 4.13097L105.45 4.12098L105.52 4.07097V4.06098C105.53 4.06098 105.53 4.05098 105.54 4.05098L109.7 0.399979L110.161 0.000976562Z" fill="url(#paint5_linear_107_460)"/>
<g style="mix-blend-mode:multiply" opacity="0.24">
<g style="mix-blend-mode:multiply" opacity="0.24">
<path d="M60.7166 11.3326C62.962 8.13396 67.9904 9.72274 67.9904 13.6308V18.0263C67.9904 19.2824 67.4005 20.4654 66.3973 21.2212L44.1187 38.005C43.5311 38.4476 42.6904 38.0284 42.6904 37.2927V37.2927C42.6904 37.1094 42.7469 36.9305 42.8523 36.7804L60.7166 11.3326Z" fill="black"/>
</g>
</g>
<g style="mix-blend-mode:multiply" opacity="0.24">
<g style="mix-blend-mode:multiply" opacity="0.24">
<path d="M102.426 11.0029C104.672 7.80428 109.7 9.39304 109.7 13.3012V19.2851C109.7 19.402 109.644 19.5119 109.55 19.5811V19.5811L85.6768 37.5693C85.1517 37.965 84.4004 37.5903 84.4004 36.9329V36.9329C84.4004 36.769 84.4509 36.6091 84.5451 36.475L102.426 11.0029Z" fill="black"/>
</g>
</g>
<g style="mix-blend-mode:overlay">
<g style="mix-blend-mode:overlay">
<path d="M65.2796 2.97095L2.06957 58.361V58.361C2.06304 58.3675 2.06285 58.3577 2.06939 58.3512C2.35971 58.0618 3.23509 57.2263 4.57957 55.951C6.26957 54.381 8.64957 52.091 11.5696 49.431C14.4896 46.771 17.8796 43.631 21.5596 40.341C25.2396 37.03 29.1896 33.551 33.1496 30.061C35.1296 28.331 37.1196 26.601 39.0796 24.9C41.0396 23.199 42.9796 21.541 44.8496 19.931C48.5996 16.711 52.1596 13.78 55.1796 11.221C58.1996 8.66195 60.7796 6.62095 62.5596 5.14995L65.2796 2.97095Z" fill="white"/>
</g>
</g>
<g style="mix-blend-mode:overlay">
<g style="mix-blend-mode:overlay">
<path d="M102.9 6.14995C104.09 5.19995 104.93 4.52994 105.34 4.21094L84.3996 22.561L67.9896 36.941L44.8496 57.201C45.1796 56.881 45.9996 56.101 47.1996 54.95C48.8196 53.441 51.0996 51.241 53.9096 48.681C56.7196 46.121 59.9596 43.111 63.4996 39.941C67.0396 36.771 70.8296 33.421 74.6196 30.071C76.5296 28.4 78.4396 26.741 80.3196 25.111C82.1996 23.481 84.0696 21.881 85.8696 20.341C89.4696 17.251 92.8996 14.431 95.7996 11.981C98.6996 9.53095 101.19 7.56095 102.9 6.14995Z" fill="white"/>
</g>
</g>
<g style="mix-blend-mode:screen" opacity="0.4">
<g style="mix-blend-mode:screen" opacity="0.4">
<path d="M105.525 4.05978C105.534 4.05529 105.538 4.05861 105.529 4.06376C105.527 4.0655 105.524 4.06758 105.52 4.07061C105.52 4.07088 105.52 4.07113 105.52 4.07136V4.07136C105.512 4.07737 105.506 4.07101 105.514 4.06512C105.515 4.06427 105.517 4.06342 105.518 4.06258C105.519 4.06156 105.521 4.06111 105.523 4.06075C105.524 4.06053 105.525 4.0602 105.525 4.05978Z" fill="white"/>
</g>
</g>
<g style="mix-blend-mode:multiply" opacity="0.25">
<g style="mix-blend-mode:multiply" opacity="0.25">
<path d="M68.68 0.000976562C68.45 0.360977 68.22 0.710975 67.99 1.06098C66.55 3.27998 65.09 5.48098 63.64 7.69098C61.96 10.251 60.24 12.791 58.52 15.331C55.1 20.4097 51.65 25.4697 48.17 30.511L42.92 38.061V38.061C42.8493 38.1624 42.69 38.1124 42.69 37.9887V37.6991C42.69 37.4867 42.4167 37.4004 42.2948 37.5743L27.6346 58.4684C26.8858 59.5356 25.6639 60.171 24.3602 60.171H0C4.4 59.981 8.81 59.9 13.22 59.761L24.0124 59.5765C25.3149 59.5542 26.5242 58.8987 27.2598 57.8236C28.5399 55.9527 29.8308 54.0892 31.11 52.221L36.35 44.681L41.63 37.15L46.94 29.65C50.49 24.66 54.08 19.6933 57.71 14.75C59.51 12.279 61.31 9.79998 63.15 7.34998C64.99 4.89998 66.81 2.43398 68.68 0.000976562Z" fill="black"/>
</g>
</g>
<g style="mix-blend-mode:multiply" opacity="0.25">
<g style="mix-blend-mode:multiply" opacity="0.25">
<path d="M110.161 0.000976562C110.011 0.240977 109.861 0.480968 109.701 0.710968C108.201 3.05097 106.651 5.37098 105.121 7.69098C103.451 10.251 101.721 12.791 100.011 15.331C96.5915 20.4097 93.1381 25.4697 89.6515 30.511L84.7969 37.4923C84.6755 37.6669 84.4015 37.581 84.4015 37.3683V37.3683C84.4015 37.1562 84.1285 37.0699 84.0066 37.2436L67.9915 60.061V60.061C67.9479 60.1295 67.8723 60.171 67.7911 60.171H41.4805C45.8905 59.981 50.2905 59.9 54.7005 59.761L65.4958 59.5766C66.8022 59.5543 68.0144 58.8947 68.7505 57.8152C70.0243 55.9471 71.3133 54.0864 72.5905 52.221L77.8405 44.681L83.1105 37.15L88.4205 29.65C91.9705 24.66 95.5605 19.6933 99.1905 14.75C100.99 12.279 102.79 9.79998 104.64 7.34998C106.47 4.89098 108.29 2.43398 110.161 0.000976562Z" fill="black"/>
</g>
</g>
<g style="mix-blend-mode:multiply" opacity="0.25">
<g style="mix-blend-mode:multiply" opacity="0.25">
<path d="M109.7 16.8711V56.0611C109.7 58.2702 107.909 60.0611 105.7 60.0611H84.4004C86.5104 59.9311 88.6204 59.8511 90.7304 59.7611C92.8404 59.6711 94.9404 59.6111 97.0504 59.5411C99.6909 59.4679 102.327 59.4169 104.965 59.3762C107.168 59.3422 108.933 57.5391 108.92 55.3357C108.909 53.3129 108.904 51.289 108.91 49.2611C108.92 45.6611 108.94 42.0611 109 38.4611C109.06 34.8611 109.12 31.2701 109.24 27.6711C109.28 25.8711 109.36 24.0711 109.44 22.2711C109.47 21.3711 109.51 20.4821 109.55 19.5821C109.59 18.6821 109.64 17.7701 109.7 16.8711Z" fill="black"/>
</g>
</g>
<g style="mix-blend-mode:overlay">
<g style="mix-blend-mode:overlay">
<path d="M102.361 0.00100708C99.2513 0.160008 96.1413 0.230998 93.0413 0.350998C90.7244 0.42797 88.4135 0.469398 86.1039 0.516319C84.8042 0.542724 83.6008 1.20321 82.8765 2.28264C81.7931 3.89706 80.7081 5.50719 79.6013 7.101L74.9513 13.841L70.2613 20.551L65.5413 27.241L60.7613 33.891L55.9313 40.491C54.3113 42.691 52.7113 44.9 51.0613 47.071C49.4113 49.242 47.7913 51.431 46.1113 53.581L67.9913 22.4L82.5265 1.70136C83.2755 0.634845 84.497 4.19122e-05 85.8003 0.000112323L102.361 0.00100708Z" fill="white"/>
</g>
</g>
<g style="mix-blend-mode:overlay">
<g style="mix-blend-mode:overlay">
<path d="M64.361 0.000976562C60.671 0.180977 56.981 0.260971 53.301 0.400971L44.6544 0.579232C43.3543 0.606036 42.1491 1.26363 41.4158 2.33753C40.3432 3.90823 39.2617 5.47445 38.191 7.05197L33.581 13.701L28.931 20.332L24.251 26.932L19.531 33.502L14.751 40.031C13.151 42.212 11.571 44.392 9.93102 46.542C8.33691 48.6665 6.74281 50.7929 5.12013 52.8993C5.11085 52.9114 5.10373 52.9064 5.11059 52.8928V52.8928C5.11087 52.8923 5.1112 52.8917 5.11155 52.8912L41.0464 1.70358C41.7953 0.636915 43.0168 0.0019336 44.3201 0.00187516L64.361 0.000976562Z" fill="white"/>
</g>
</g>
<defs>
<linearGradient id="paint0_linear_107_460" x1="51.0533" y1="70.3148" x2="56.6923" y2="26.176" gradientUnits="userSpaceOnUse">
<stop stop-color="#7CB0FF"/>
<stop offset="1" stop-color="#2255A4"/>
</linearGradient>
<linearGradient id="paint1_linear_107_460" x1="97.0504" y1="59.5264" x2="97.0504" y2="17.8135" gradientUnits="userSpaceOnUse">
<stop stop-color="#7CB0FF"/>
<stop offset="0.739583" stop-color="#2255A4"/>
</linearGradient>
<linearGradient id="paint2_linear_107_460" x1="14.5" y1="40" x2="58.1682" y2="-11.3566" gradientUnits="userSpaceOnUse">
<stop stop-color="#2255A4"/>
<stop offset="1" stop-color="#9ABAEC"/>
</linearGradient>
<linearGradient id="paint3_linear_107_460" x1="0" y1="30.086" x2="68.68" y2="30.086" gradientUnits="userSpaceOnUse">
<stop stop-color="#7CB0FF"/>
<stop offset="1" stop-color="#2255A4"/>
</linearGradient>
<linearGradient id="paint4_linear_107_460" x1="72" y1="25" x2="102.245" y2="-16.049" gradientUnits="userSpaceOnUse">
<stop stop-color="#2255A4"/>
<stop offset="0.96875" stop-color="#A0C6FF"/>
</linearGradient>
<linearGradient id="paint5_linear_107_460" x1="41.4805" y1="30.086" x2="110.161" y2="30.086" gradientUnits="userSpaceOnUse">
<stop stop-color="#7CB0FF"/>
<stop offset="1" stop-color="#2255A4"/>
</linearGradient>
</defs>
</svg>
